<svg xmlns="http://www.w3.org/2000/svg" xmlns:xlink="http://www.w3.org/1999/xlink" version="1.1" x="0px" y="0px" viewBox="50 50 280 280">
    <path class="roseta" d="M266.57,174.95c-2.86-0.93-5.49-1.7-7.94-2.34c2.39-2.71,4.9-5.93,7.35-9.3c6.64-9.14,9.99-16.2,9.99-22.49
            c0-10.62-7.29-17.83-21.21-28.87c-10.56-8.38-18.85-12.99-26.65-12.99c-8.74,0-16.58,5.67-25.67,18.18
            c-1.77,2.43-3.32,4.69-4.68,6.83c-1.84-3.11-4.12-6.5-6.57-9.87c-8.93-12.3-16.21-17.47-24.58-17.47c-7.64,0-16.18,4.6-27.74,12.27
            c-14.6,9.69-21.56,17.27-21.56,28.13c0,6.61,3.64,14.02,10.33,23.23c1.77,2.43,3.44,4.61,5.05,6.56c-3.53,0.79-7.45,1.91-11.41,3.2
            c-18.85,6.12-25.25,13.62-25.25,26.06c0,5.91,1.65,13.18,4.14,22.09c5.75,20.63,12.75,30.1,27.32,30.1
            c4.91,0,10.97-1.24,18.07-3.55c2.86-0.93,5.44-1.85,7.8-2.78c-0.34,3.6-0.48,7.68-0.48,11.84c0,29.62,11.28,34.96,44.49,34.96
            c22.94,0,34.06-5.89,34.06-34.96c0-3-0.08-5.75-0.23-8.28c3.32,1.44,7.15,2.83,11.11,4.12c7.81,2.54,14.01,3.44,19.13,3.44
            c11.83,0,18.97-10.43,26.25-29.98c3.39-9.11,5.14-16.57,5.14-22.71C292.81,187.93,284.89,180.91,266.57,174.95z M222.55,133.49
            l3.25-4.47c1.85-2.55,5.13-3.09,7.56-0.96c12.76,11.15,20.65,27.72,20.52,43.48c-7.55-1.43-13.07-0.97-17.49,1.83
            c0.13-0.8,0.22-1.66,0.28-2.57c0.46-9.31-4.22-19.26-13.41-29.85C221.25,138.65,220.7,136.04,222.55,133.49z M210.7,166.37
            c10.94,7.95,17.19,11.18,20.81,11.57c-3.42,4.42-6.24,10.98-9.19,20.08c-4.18,12.86-5.32,19.8-4.58,23.37
            c-5.26-1.89-12.37-2.54-21.94-2.54c-13.51,0-20.48,1.05-23.64,2.86c0.17-5.58-1.41-12.55-4.37-21.65
            c-4.18-12.85-7.33-19.15-10.03-21.59c5.37-1.56,11.5-5.22,19.24-10.84c10.94-7.94,15.95-12.89,17.44-16.21
            C197.59,156.04,202.96,160.75,210.7,166.37z M147.58,134.25c14.55-8.69,32.75-11.08,47.69-6.07c-3.69,6.74-4.96,12.13-3.67,17.2
            c-0.72-0.37-1.51-0.72-2.36-1.06c-8.72-3.32-19.62-1.94-32.53,3.54c-2.81,1.19-5.46,0.91-7.31-1.64l-3.25-4.47
            C144.3,139.18,144.81,135.91,147.58,134.25z M149.39,181.22c-5.85,7.26-7.91,18.06-6.69,32.03c0.27,3.04-0.82,5.47-3.81,6.45
            l-5.25,1.71c-3,0.97-5.96-0.52-6.68-3.67c-3.77-16.52-0.42-34.57,8.96-47.23c5.27,5.59,10,8.47,15.22,8.8
            C150.56,179.87,149.98,180.52,149.39,181.22z M205.54,257.94c0,3.15-2.33,5.51-5.55,5.22c-16.88-1.52-33-10.29-42.15-23.12
            c6.95-3.28,11.14-6.9,13.07-11.75c0.36,0.72,0.81,1.47,1.29,2.25c5.1,7.81,14.73,13.1,28.4,16.26c2.97,0.69,4.95,2.47,4.95,5.62
            V257.94z M265.74,207.74c-6.66,15.58-19.98,28.21-35.01,32.95c-0.98-7.63-3.12-12.73-7.14-16.07c0.8-0.12,1.65-0.31,2.54-0.53
            c9-2.44,17.01-9.96,24.24-21.98c1.57-2.62,3.88-3.95,6.87-2.97l5.25,1.71C265.5,201.82,267.02,204.76,265.74,207.74z"></path>
</svg>